<svg xmlns="http://www.w3.org/2000/svg" width="87" height="87" viewBox="0 0 87 87">
  <g id="ball" transform="translate(0 0)">
    <path id="Path_1" data-name="Path 1" d="M67.174,33.587A33.587,33.587,0,1,1,33.587,0,33.588,33.588,0,0,1,67.174,33.587Zm0,0" fill="#786acf"/>
    <path id="Path_2" data-name="Path 2" d="M34.336.008a33.587,33.587,0,0,0,6.611,66.356A33.587,33.587,0,0,0,34.336.008Zm0,0" fill="#786acf"/>
    <path id="Path_3" data-name="Path 3" d="M64.787,21.132A22.071,22.071,0,0,0,56.224,13.2,19.847,19.847,0,0,0,40.4,11.747c-.45.162-.88.363-1.313.56a44.088,44.088,0,0,0-4.1-3.158A38.355,38.355,0,0,1,49.978,5.687c.81-.022,1.627-.008,2.345.02a33.481,33.481,0,0,0-4.8-2.689A41.235,41.235,0,0,0,32.2,7.395a42.9,42.9,0,0,0-3.867-2A7.979,7.979,0,0,0,30.258.334V.164q-1.422.139-2.8.4a5.628,5.628,0,0,1-1.875,3.686,47.046,47.046,0,0,0-5.065-1.606,33.682,33.682,0,0,0-3.942,1.979c.475.105,1,.218,1.587.343A43.5,43.5,0,0,1,22.793,6.25,37.757,37.757,0,0,1,10.026,9.656,33.665,33.665,0,0,0,7.3,12.672c.412-.021.864-.049,1.356-.087,3.594-.269,12.2-1.3,17.425-5.1q1.654.7,3.219,1.531A43.723,43.723,0,0,0,8.483,46.206,44.7,44.7,0,0,0,10,57.5a33.822,33.822,0,0,0,3.937,3.331c-.2-.576-.41-1.224-.634-1.951a42.51,42.51,0,0,1-2.018-12.67A40.9,40.9,0,0,1,32.1,10.624a41.419,41.419,0,0,1,4.371,3.169,22.447,22.447,0,0,0-7.628,9.656c-4.975,11.289-3.972,29.756,7.4,43.621a32.322,32.322,0,0,0,3.3-.419c-.211-.266-.376-.455-.559-.662-11.2-13.065-12.293-30.72-7.583-41.406a19.31,19.31,0,0,1,7.222-8.855A40.057,40.057,0,0,1,51.078,44.809,38.8,38.8,0,0,1,46.6,63.37c-.31.574-.6,1.087-.853,1.538a33.454,33.454,0,0,0,4.174-1.958A43.214,43.214,0,0,0,41.313,14.4l.036-.016A17.127,17.127,0,0,1,54.976,15.7c4.272,2.127,7.666,6.191,10.376,12.425.72,1.652,1.326,3.3,1.819,4.759a33.473,33.473,0,0,0-2.384-11.757Zm0,0" fill="#9997ff"/>
    <path id="Path_4" data-name="Path 4" d="M64.787,21.132A22.071,22.071,0,0,0,56.224,13.2,19.847,19.847,0,0,0,40.4,11.747c-.45.162-.88.363-1.313.56a44.088,44.088,0,0,0-4.1-3.158A38.355,38.355,0,0,1,49.978,5.687c.81-.022,1.627-.008,2.345.02a33.481,33.481,0,0,0-4.8-2.689A41.235,41.235,0,0,0,32.2,7.395a42.9,42.9,0,0,0-3.867-2A8.206,8.206,0,0,0,30.2,1.219a33.144,33.144,0,0,0-3.388,1.45,7.249,7.249,0,0,1-1.235,1.576q-.5-.189-.995-.365a33.876,33.876,0,0,0-2.98,2c.4.121.8.248,1.191.38a22.589,22.589,0,0,1-3.448,1.465,33.909,33.909,0,0,0-3.724,3.893A28.04,28.04,0,0,0,26.086,7.49q1.654.7,3.219,1.531a43.787,43.787,0,0,0-20.393,31.1,33.358,33.358,0,0,0,2.378,6.961c-.007-.291-.011-.581-.011-.872A40.9,40.9,0,0,1,32.1,10.624a41.419,41.419,0,0,1,4.371,3.169,22.447,22.447,0,0,0-7.628,9.656c-4.818,10.933-4.029,28.6,6.355,42.3a33.766,33.766,0,0,0,4.044.54l-.255-.3C27.789,52.922,26.692,35.266,31.4,24.58a19.324,19.324,0,0,1,7.222-8.856A40.057,40.057,0,0,1,51.079,44.807,38.787,38.787,0,0,1,46.6,63.367c-.309.575-.6,1.087-.852,1.539a33.509,33.509,0,0,0,4.172-1.959A43.212,43.212,0,0,0,41.315,14.4l.035-.015A17.129,17.129,0,0,1,54.978,15.7c4.271,2.127,7.666,6.191,10.376,12.426.719,1.652,1.325,3.3,1.818,4.758a33.48,33.48,0,0,0-2.385-11.754Z" fill="#9997ff"/>
    <path id="Path_5" data-name="Path 5" d="M64.787,21.132" fill="#8981f2"/>
    <path id="Path_6" data-name="Path 6" d="M30.31,67.013c1.079.1,2.172.161,3.277.161A33.588,33.588,0,0,0,67.174,33.587v-.165a39.309,39.309,0,0,0-25.331,12,39.7,39.7,0,0,0-11.533,21.6Zm0,0" fill="#786acf"/>
    <path id="Path_7" data-name="Path 7" d="M46.6,63.367c-.309.575-.6,1.087-.852,1.539a33.59,33.59,0,0,0,4.173-1.959,42.864,42.864,0,0,0,3.956-18.14,43.533,43.533,0,0,0-.678-7.6c-.864.419-1.73.873-2.6,1.382a40.621,40.621,0,0,1,.478,6.22A38.775,38.775,0,0,1,46.6,63.367Zm0,0" fill="#f4991e"/>
    <path id="Path_8" data-name="Path 8" d="M39.24,66.284l-.255-.3A41.638,41.638,0,0,1,33.324,57.4c-.53,1.134-.988,2.258-1.382,3.369A44.371,44.371,0,0,0,35.2,65.744a33.766,33.766,0,0,0,4.044.54Zm0,0" fill="#f4991e"/>
    <path id="Path_9" data-name="Path 9" d="M46.6,63.367c-.309.575-.6,1.087-.852,1.539a33.59,33.59,0,0,0,4.173-1.959,42.864,42.864,0,0,0,3.956-18.14,43.533,43.533,0,0,0-.678-7.6c-.864.419-1.73.873-2.6,1.382a40.621,40.621,0,0,1,.478,6.22A38.775,38.775,0,0,1,46.6,63.367Zm0,0" fill="#9997ff"/>
    <path id="Path_10" data-name="Path 10" d="M39.24,66.284l-.255-.3A41.638,41.638,0,0,1,33.324,57.4c-.53,1.134-.988,2.258-1.382,3.369A44.371,44.371,0,0,0,35.2,65.744a33.766,33.766,0,0,0,4.044.54Zm0,0" fill="#9997ff"/>
    <path id="Path_11" data-name="Path 11" d="M45.418,45.418C27.046,63.788,35.049,85.033,35.049,85.033s21.243,8,39.614-10.37,10.37-39.614,10.37-39.614-21.245-8-39.615,10.369Zm0,0" fill="#615fc1"/>
    <path id="Path_12" data-name="Path 12" d="M85.033,35.049A35.9,35.9,0,0,0,72.6,33.328,39.832,39.832,0,0,0,51.525,44.773C33.154,63.144,41.157,84.388,41.157,84.388a35.865,35.865,0,0,0,12.435,1.72A39.814,39.814,0,0,0,74.663,74.664c18.372-18.372,10.37-39.615,10.37-39.615Zm0,0" fill="#786acf"/>
    <rect id="Rectangle_1" data-name="Rectangle 1" width="87" height="87" transform="translate(0 0)" fill="none"/>
    <path id="Path_13" data-name="Path 13" d="M44.714,75.367A52,52,0,0,1,35.6,63.984c-.258-.476-.487-.914-.7-1.324a37.582,37.582,0,0,0-.965,4.042,60.051,60.051,0,0,0,8.8,10.644,69.564,69.564,0,0,0,10.775,8.776,37.946,37.946,0,0,0,3.883-.932,14.884,14.884,0,0,1-1.314-.714,66.235,66.235,0,0,1-11.364-9.109Zm0,0" fill="#9997ff"/>
    <path id="Path_14" data-name="Path 14" d="M77.371,42.71a64.8,64.8,0,0,0-10.677-8.775,38.12,38.12,0,0,0-3.918.93c.305.171.712.4,1.22.7a58.8,58.8,0,0,1,11.4,9.128A64.922,64.922,0,0,1,84.5,56.055c.29.468.533.871.732,1.213a37.6,37.6,0,0,0,.9-3.8A68.549,68.549,0,0,0,77.371,42.71Zm0,0" fill="#9997ff"/>
    <path id="Path_15" data-name="Path 15" d="M71.188,46.916l-2.6,2.6-2-2a1.4,1.4,0,1,0-1.978,1.979l2,2-3.827,3.826-1.995-2A1.4,1.4,0,0,0,58.814,55.3l1.994,1.993-3.827,3.827-1.995-1.992a1.4,1.4,0,0,0-1.979,1.979L55,63.1l-3.827,3.827-1.99-1.993A1.4,1.4,0,0,0,47.2,66.914l1.992,1.994L46.6,71.5a1.4,1.4,0,0,0,.984,2.406,1.391,1.391,0,0,0,1-.427l2.594-2.6,1.841,1.841A1.4,1.4,0,0,0,55,70.747l-1.84-1.84,3.822-3.832,1.84,1.841A1.4,1.4,0,0,0,60.8,64.935L58.96,63.1l3.827-3.827,1.839,1.84a1.4,1.4,0,1,0,1.979-1.979l-1.839-1.84,3.826-3.828,1.84,1.841a1.4,1.4,0,0,0,1.979-1.979l-1.84-1.839,2.6-2.6a1.4,1.4,0,1,0-1.979-1.979Zm0,0" fill="#eaeae8"/>
    <path id="Path_16" data-name="Path 16" d="M56.083,84.476a66.271,66.271,0,0,1-11.369-9.109c-2-2-3.715-3.874-5.155-5.633a39.436,39.436,0,0,0-.128,4.14q1.512,1.678,3.305,3.472A69.4,69.4,0,0,0,53.5,86.109h.094a37.5,37.5,0,0,0,3.806-.917,14.664,14.664,0,0,1-1.315-.716Zm0,0" fill="#9997ff"/>
    <path id="Path_17" data-name="Path 17" d="M84.5,56.052c.291.468.533.871.732,1.213a37.6,37.6,0,0,0,.9-3.8A68.514,68.514,0,0,0,77.371,42.71a66.828,66.828,0,0,0-9.68-8.117q-1.6.53-3.248,1.24a59.89,59.89,0,0,1,10.948,8.859A64.855,64.855,0,0,1,84.5,56.052Zm0,0" fill="#9997ff"/>
    <path id="Path_18" data-name="Path 18" d="M71.188,46.916l-2.6,2.6-2-2a1.4,1.4,0,1,0-1.978,1.979l2,2-3.827,3.826-1.995-2A1.4,1.4,0,0,0,58.814,55.3l1.994,1.993-3.827,3.827-1.995-1.992a1.4,1.4,0,0,0-1.979,1.979L55,63.1l-3.827,3.827-1.99-1.993A1.4,1.4,0,0,0,47.2,66.914l1.992,1.994L46.6,71.5a1.4,1.4,0,0,0,.984,2.406,1.391,1.391,0,0,0,1-.427l2.594-2.6,1.841,1.841A1.4,1.4,0,0,0,55,70.747l-1.84-1.84,3.822-3.832,1.84,1.841A1.4,1.4,0,0,0,60.8,64.935L58.96,63.1l3.827-3.827,1.839,1.84a1.4,1.4,0,1,0,1.979-1.979l-1.839-1.84,3.826-3.828,1.84,1.841a1.4,1.4,0,0,0,1.979-1.979l-1.84-1.839,2.6-2.6a1.4,1.4,0,1,0-1.979-1.979Zm0,0" fill="#9997ff"/>
  </g>
</svg>
