<svg id="bus" xmlns="http://www.w3.org/2000/svg" width="87" height="87" viewBox="0 0 87 87">
  <path id="Path_1" data-name="Path 1" d="M11.028,20.481H5.252a1.313,1.313,0,1,1,0-2.626h5.776a1.313,1.313,0,0,1,0,2.626Zm0,0" fill="#bf4026"/>
  <path id="Path_2" data-name="Path 2" d="M1.226,36.41h2.8a1.226,1.226,0,0,0,1.226-1.225V17.855H1.226A1.226,1.226,0,0,0,0,19.08V35.185A1.226,1.226,0,0,0,1.226,36.41Zm0,0" fill="#fe5d37"/>
  <path id="Path_3" data-name="Path 3" d="M81.748,20.481H75.972a1.313,1.313,0,1,1,0-2.626h5.776a1.313,1.313,0,1,1,0,2.626Zm0,0" fill="#bf4026"/>
  <path id="Path_4" data-name="Path 4" d="M85.774,36.41h-2.8a1.226,1.226,0,0,1-1.226-1.225V17.855h4.026A1.226,1.226,0,0,1,87,19.08V35.185a1.226,1.226,0,0,1-1.226,1.225Zm0,0" fill="#fe5d37"/>
  <path id="Path_5" data-name="Path 5" d="M67.614,87H58.773a3.5,3.5,0,0,1-3.5-3.5V76.181H71.115V83.5a3.5,3.5,0,0,1-3.5,3.5Zm0,0" fill="#bf4026"/>
  <path id="Path_6" data-name="Path 6" d="M65.863,76.181V83.5a3.5,3.5,0,0,1-3.5,3.5h5.252a3.5,3.5,0,0,0,3.5-3.5V76.181Zm0,0" fill="#bf4026"/>
  <path id="Path_7" data-name="Path 7" d="M28.227,87H19.386a3.5,3.5,0,0,1-3.5-3.5V76.181H31.728V83.5a3.5,3.5,0,0,1-3.5,3.5Zm0,0" fill="#bf4026"/>
  <path id="Path_8" data-name="Path 8" d="M26.478,76.181V83.5a3.5,3.5,0,0,1-3.5,3.5h5.25a3.5,3.5,0,0,0,3.5-3.5V76.181Zm0,0" fill="#bf4026"/>
  <path id="Path_9" data-name="Path 9" d="M70.72,78.6H16.28a5.253,5.253,0,0,1-5.252-5.252V12.6A5.252,5.252,0,0,1,16.28,7.352H70.72A5.252,5.252,0,0,1,75.972,12.6V73.346A5.253,5.253,0,0,1,70.72,78.6Zm0,0" fill="#fe5d37"/>
  <path id="Path_10" data-name="Path 10" d="M70.72,7.352H65.469A5.25,5.25,0,0,1,70.72,12.6V73.346A5.251,5.251,0,0,1,65.469,78.6H70.72a5.253,5.253,0,0,0,5.252-5.252V12.6A5.252,5.252,0,0,0,70.72,7.352Zm0,0" fill="#fe5d37"/>
  <path id="Path_11" data-name="Path 11" d="M64.86,7.352H22.14V3.5a3.5,3.5,0,0,1,3.5-3.5H61.359a3.5,3.5,0,0,1,3.5,3.5Zm0,0" fill="#bf4026"/>
  <path id="Path_12" data-name="Path 12" d="M61.359,0H56.107a3.5,3.5,0,0,1,3.5,3.5V7.352H64.86V3.5a3.5,3.5,0,0,0-3.5-3.5Zm0,0" fill="#bf4026"/>
  <path id="Path_13" data-name="Path 13" d="M68.97,50.42H18.03a1.75,1.75,0,0,1-1.75-1.751V19.606a1.75,1.75,0,0,1,1.75-1.751H68.97a1.75,1.75,0,0,1,1.75,1.751V48.669a1.75,1.75,0,0,1-1.75,1.751Zm0,0" fill="#bf4026"/>
  <path id="Path_14" data-name="Path 14" d="M68.97,17.855H63.719a1.75,1.75,0,0,1,1.75,1.751V48.669a1.75,1.75,0,0,1-1.75,1.751H68.97a1.75,1.75,0,0,0,1.75-1.751V19.606a1.75,1.75,0,0,0-1.75-1.751Zm0,0" fill="#bf4026"/>
  <path id="Path_15" data-name="Path 15" d="M66.173,12.6a1.313,1.313,0,1,1-1.313-1.312A1.314,1.314,0,0,1,66.173,12.6Zm0,0" fill="#bf4026"/>
  <path id="Path_16" data-name="Path 16" d="M23.453,12.6a1.313,1.313,0,1,1-1.313-1.312A1.314,1.314,0,0,1,23.453,12.6Zm0,0" fill="#bf4026"/>
  <path id="Path_17" data-name="Path 17" d="M57.472,13.917H29.528a1.313,1.313,0,1,1,0-2.626H57.472a1.313,1.313,0,1,1,0,2.626Zm0,0" fill="#bf4026"/>
  <path id="Path_18" data-name="Path 18" d="M53.043,70.2H33.957A1.049,1.049,0,0,1,33,69.57l-4.325-9.8a1.051,1.051,0,0,1,.961-1.475H57.367a1.05,1.05,0,0,1,.961,1.475L54,69.57a1.051,1.051,0,0,1-.961.626Zm0,0" fill="#bf4026"/>
  <path id="Path_19" data-name="Path 19" d="M57.367,58.3H52.115a1.051,1.051,0,0,1,.962,1.475l-4.324,9.8a1.053,1.053,0,0,1-.962.625h5.252A1.048,1.048,0,0,0,54,69.57l4.325-9.8a1.05,1.05,0,0,0-.961-1.475Zm0,0" fill="#bf4026"/>
  <path id="Path_20" data-name="Path 20" d="M75.972,70.2H62.149a.349.349,0,0,1-.321-.488l2.757-6.426a1.226,1.226,0,0,1,1.127-.742h10.26Zm0,0" fill="#bf4026"/>
  <rect id="Rectangle_1" data-name="Rectangle 1" width="5.252" height="7.656" transform="translate(70.72 62.54)" fill="#bf4026"/>
  <path id="Path_21" data-name="Path 21" d="M11.028,70.2H24.851a.349.349,0,0,0,.321-.488l-2.757-6.426a1.226,1.226,0,0,0-1.127-.742H11.028Zm0,0" fill="#bf4026"/>
  <path id="Path_22" data-name="Path 22" d="M25.172,69.708l-2.757-6.426a1.226,1.226,0,0,0-1.127-.742H16.036a1.225,1.225,0,0,1,1.127.742l2.759,6.426a.35.35,0,0,1-.323.488h5.252a.349.349,0,0,0,.321-.488Zm0,0" fill="#bf4026"/>
  <path id="Path_23" data-name="Path 23" d="M49.58,65.56H37.42a1.313,1.313,0,1,1,0-2.626H49.58a1.313,1.313,0,1,1,0,2.626Zm0,0" fill="#bf4026"/>
</svg>
