<svg id="girl" xmlns="http://www.w3.org/2000/svg" xmlns:xlink="http://www.w3.org/1999/xlink" width="87" height="87" viewBox="0 0 87 87">
  <defs>
    <clipPath id="clip-path">
      <rect id="Rectangle_1" data-name="Rectangle 1" width="87" height="87" fill="none"/>
    </clipPath>
  </defs>
  <g id="Group_2" data-name="Group 2">
    <g id="Group_1" data-name="Group 1" clip-path="url(#clip-path)">
      <path id="Path_1" data-name="Path 1" d="M66.829,45.758l-.5,4.378L66,53.085H24l-.334-2.949-.5-4.378A22.334,22.334,0,0,1,24.9,34.318a22.362,22.362,0,0,0,1.837-10.07l-.26-5.1A18.055,18.055,0,0,1,31.56,5.668a18.77,18.77,0,0,1,26.879,0,18.056,18.056,0,0,1,5.088,13.477l-.261,5.1A22.377,22.377,0,0,0,65.1,34.318a22.324,22.324,0,0,1,1.725,11.44Zm0,0" fill="#8f4d2e"/>
      <path id="Path_2" data-name="Path 2" d="M66.829,45.758l-.5,4.378H49.5V33.915l3-5.9V16.22A16.283,16.283,0,0,0,40.361.573,18.817,18.817,0,0,1,56.715,4.108a18.126,18.126,0,0,1,6.812,15.037l-.261,5.1A22.377,22.377,0,0,0,65.1,34.318a22.324,22.324,0,0,1,1.725,11.44Zm0,0" fill="#82462a"/>
    </g>
  </g>
  <path id="Path_3" data-name="Path 3" d="M53.1,47.186a2.126,2.126,0,0,1-1.485-.6A2.052,2.052,0,0,1,51,45.123V35.39H39v9.733a2.052,2.052,0,0,1-.614,1.46,2.126,2.126,0,0,1-1.486.6H34.5v8.848h21V47.186Zm0,0" fill="#fec9a3"/>
  <path id="Path_4" data-name="Path 4" d="M45.9,42.763A8.316,8.316,0,0,0,51,40.955V35.39H39v5.564a8.315,8.315,0,0,0,5.1,1.809Zm0,0" fill="#feb784"/>
  <path id="Path_5" data-name="Path 5" d="M58.5,19.169v7.373a13.5,13.5,0,0,1-27,0V19.169a20.118,20.118,0,0,0,6.919-7.705L39,10.322l.851.7a37.546,37.546,0,0,0,12.649,6.8,37.965,37.965,0,0,0,6,1.347Zm0,0" fill="#fec9a3"/>
  <path id="Path_6" data-name="Path 6" d="M58.5,19.169v7.373a13.337,13.337,0,0,1-10.924,13.03A16.026,16.026,0,0,0,52.5,28.017V17.822a37.965,37.965,0,0,0,6,1.347Zm0,0" fill="#fec093"/>
  <path id="Path_7" data-name="Path 7" d="M38.25,25.068A2.251,2.251,0,0,1,36.171,23.7a2.185,2.185,0,0,1,.488-2.411,2.279,2.279,0,0,1,2.452-.48,2.207,2.207,0,0,1-.861,4.256Zm0,0" fill="#7a432a"/>
  <path id="Path_8" data-name="Path 8" d="M51.75,25.068A2.252,2.252,0,0,1,49.671,23.7a2.185,2.185,0,0,1,.488-2.411,2.279,2.279,0,0,1,2.452-.48,2.207,2.207,0,0,1-.861,4.256Zm0,0" fill="#7a432a"/>
  <path id="Path_9" data-name="Path 9" d="M45,32.441a4.467,4.467,0,0,1-4.5-4.424h3a1.5,1.5,0,0,0,3,0h3A4.468,4.468,0,0,1,45,32.441Zm0,0" fill="#f7a468"/>
  <rect id="Rectangle_2" data-name="Rectangle 2" width="15" height="10.322" transform="translate(37.5 53.085)" fill="#e0e0de"/>
  <path id="Path_10" data-name="Path 10" d="M75.557,85.465A4.563,4.563,0,0,1,70.5,82.5L60.593,64.224A11.332,11.332,0,0,1,58.5,75.2V87h-27V75.2a11.349,11.349,0,0,1-2.07-11.116L19.361,82.5A4.57,4.57,0,0,1,13.624,85.3a4.458,4.458,0,0,1-2.9-5.617l11.013-26.95a9,9,0,0,1,8.351-5.55H36l9,16.221,9-16.221h5.894a9.01,9.01,0,0,1,8.362,5.58l10.888,26.92a4.41,4.41,0,0,1-.451,3.695,4.553,4.553,0,0,1-3.136,2.084Zm0,0" fill="#5bd7ca"/>
  <path id="Path_11" data-name="Path 11" d="M9.418,80.182,10.5,66.356h9V80.562a4.923,4.923,0,0,1-1.479,3.51,5.111,5.111,0,0,1-7.274-.137,4.917,4.917,0,0,1-1.329-3.753Zm0,0" fill="#5bd7ca"/>
  <path id="Path_12" data-name="Path 12" d="M14.029,44.846a2.9,2.9,0,0,0-1.943,1.584,2.822,2.822,0,0,0,.041,2.482l1.373,2.7H8.125A9.137,9.137,0,0,1,4.1,50.676L2.6,49.942a1.826,1.826,0,0,0-1.751.077A1.763,1.763,0,0,0,0,51.524v4.161a2.941,2.941,0,0,0,1.658,2.638l2.441,1.2a9.124,9.124,0,0,0,4.026.935H19.5V51.61l-2.054-5.048a2.931,2.931,0,0,0-3.417-1.716Zm0,0" fill="#fec9a3"/>
  <rect id="Rectangle_3" data-name="Rectangle 3" width="9" height="5.898" transform="translate(10.5 60.458)" fill="#e0e0de"/>
  <path id="Path_13" data-name="Path 13" d="M75.557,85.465A4.563,4.563,0,0,1,70.5,82.5L60.593,64.224A11.332,11.332,0,0,1,58.5,75.2V87H31.993c12.381-7.948,22.826-18.034,31.594-39.032a8.9,8.9,0,0,1,4.669,4.8l10.888,26.92a4.41,4.41,0,0,1-.451,3.695,4.553,4.553,0,0,1-3.136,2.084Zm0,0" fill="#2bc1af"/>
  <path id="Path_14" data-name="Path 14" d="M66,81.1,51,78.153V57.508l15,2.95Zm0,0" fill="#a36548"/>
  <path id="Path_15" data-name="Path 15" d="M72,81.1l15-2.949V57.508l-15,2.95Zm0,0" fill="#8f4d2e"/>
  <rect id="Rectangle_4" data-name="Rectangle 4" width="6" height="20.644" transform="translate(66 60.458)" fill="#95573a"/>
  <path id="Path_16" data-name="Path 16" d="M69,60.458a5.251,5.251,0,0,0-4.438-5.152L51,53.085v4.423l15,2.95h3a5.251,5.251,0,0,1,4.438-5.152L87,53.085v4.423l-15,2.95Zm0,0" fill="#d4bd81"/>
  <path id="Path_17" data-name="Path 17" d="M84.246,80.962l-6,.983a1.52,1.52,0,0,1-1.216-.33,1.466,1.466,0,0,1-.53-1.125V75.009a1.93,1.93,0,0,1,1.631-1.894l5.1-.834a1.974,1.974,0,0,1,1.583.428,1.908,1.908,0,0,1,.691,1.465v5.332a1.485,1.485,0,0,1-1.254,1.456Zm0,0" fill="#fec9a3"/>
</svg>
