<svg xmlns="http://www.w3.org/2000/svg" width="87" height="87" viewBox="0 0 87 87">
  <g id="music" transform="translate(0 0)">
    <path id="Path_1" data-name="Path 1" d="M87,18.177v43.33c0,5.623-5.715,10.2-12.744,10.2A14.574,14.574,0,0,1,65.6,68.987a8.884,8.884,0,0,1,0-14.96,14.574,14.574,0,0,1,8.653-2.715A14.759,14.759,0,0,1,81.9,53.4V32.238L65.6,39.224,51.316,45.346V76.8C51.316,82.423,45.6,87,38.572,87S25.828,82.423,25.828,76.8s5.715-10.195,12.744-10.195a14.765,14.765,0,0,1,7.647,2.089V33.47a2.541,2.541,0,0,1,1.542-2.341L83.445,15.836A2.548,2.548,0,0,1,87,18.177Zm0,0" fill="#fcb510"/>
    <path id="Path_2" data-name="Path 2" d="M40.781,28.033c0,5.964-5.251,11.418-5.862,11.979a2.523,2.523,0,0,1-3.568-3.568c1.172-1.224,4.333-5.1,4.333-8.411,0-5.455-5.608-13.407-10.2-18.862v36.7c0,.408-.051.918-.1,1.427a10.13,10.13,0,0,1-4.995,6.73,14.871,14.871,0,0,1-7.647,2.039C5.709,56.07,0,51.482,0,45.874S5.709,35.679,12.744,35.679a14.881,14.881,0,0,1,7.647,2.09V2.544A2.543,2.543,0,0,1,21.97.2,2.486,2.486,0,0,1,24.724.76c1.682,1.631,16.057,16.363,16.057,27.273Z" fill="#fcb510"/>
    <path id="Path_3" data-name="Path 3" d="M40.781,28.033" fill="#979fef"/>
    <path id="Path_4" data-name="Path 4" d="M40.781,28.033c0,5.964-5.251,11.418-5.862,11.979a2.523,2.523,0,0,1-3.568-3.568c1.172-1.224,4.333-5.1,4.333-8.411,0-5.455-5.608-13.407-10.2-18.862v36.7c0,.408-.051.918-.1,1.427a10.13,10.13,0,0,1-4.995,6.73V2.544A2.543,2.543,0,0,1,21.97.2,2.486,2.486,0,0,1,24.724.76c1.682,1.631,16.057,16.363,16.057,27.273Zm0,0" fill="#fcb510"/>
    <rect id="Rectangle_1" data-name="Rectangle 1" width="87" height="87" transform="translate(0 0)" fill="none"/>
    <path id="Path_5" data-name="Path 5" d="M85.855,16.05a2.531,2.531,0,0,0-2.41-.214L65.6,23.482V39.224l16.3-6.986V53.4a14.759,14.759,0,0,0-7.646-2.089A14.574,14.574,0,0,0,65.6,54.027a8.884,8.884,0,0,0,0,14.96A14.574,14.574,0,0,0,74.256,71.7C81.285,71.7,87,67.13,87,61.507V18.177a2.543,2.543,0,0,0-1.145-2.127Zm0,0" fill="#fcb510"/>
  </g>
</svg>
